<?xml version="1.0" standalone="no"?>
<!DOCTYPE svg PUBLIC "-//W3C//DTD SVG 20010904//EN"
 "http://www.w3.org/TR/2001/REC-SVG-20010904/DTD/svg10.dtd">
<svg version="1.0" xmlns="http://www.w3.org/2000/svg"
 width="800.000000pt" height="800.000000pt" viewBox="0 0 800.000000 800.000000"
 preserveAspectRatio="xMidYMid meet">
<metadata>
Created by potrace 1.16, written by Peter Selinger 2001-2019
</metadata>
<g transform="translate(0.000000,800.000000) scale(0.100000,-0.100000)"
fill="#000000" stroke="none">
<path d="M3610 6539 c-53 -24 -116 -81 -134 -124 -40 -90 -62 -137 -147 -310
-51 -104 -106 -212 -122 -240 -17 -27 -78 -147 -138 -265 -59 -118 -148 -287
-199 -375 -142 -246 -289 -547 -338 -690 -28 -83 -47 -200 -62 -390 -6 -77
-15 -165 -21 -196 -13 -75 2 -224 40 -405 43 -207 78 -263 168 -271 39 -4 53
-1 76 17 41 32 55 69 66 162 6 55 24 121 50 191 45 119 171 350 225 412 31 36
36 38 50 25 21 -21 175 -352 226 -485 101 -265 106 -301 71 -450 -23 -95 -114
-339 -165 -444 -19 -40 -45 -101 -56 -135 -12 -33 -25 -70 -29 -81 -5 -11 -13
-31 -18 -45 -16 -39 -29 -71 -48 -115 -10 -22 -24 -56 -32 -75 -8 -19 -19 -44
-24 -55 -4 -11 -15 -40 -23 -65 -15 -46 -47 -131 -71 -185 -7 -16 -18 -46 -26
-65 -15 -41 -51 -124 -85 -195 -13 -27 -26 -69 -30 -92 -6 -39 -4 -45 29 -78
60 -60 127 -42 227 64 36 38 121 122 190 187 170 161 363 365 475 504 103 127
243 345 295 457 19 42 39 73 48 73 8 0 49 -33 91 -73 162 -157 331 -287 476
-368 33 -18 76 -50 97 -71 42 -42 112 -181 177 -353 66 -173 77 -191 128 -216
78 -38 154 -3 169 76 11 62 -19 213 -91 460 -100 345 -154 709 -140 945 8 128
47 443 80 645 13 83 27 172 31 198 7 53 26 70 71 62 15 -2 73 -12 128 -20 124
-20 262 -58 329 -92 129 -65 256 -173 310 -262 46 -75 67 -92 119 -98 91 -11
145 51 134 153 -7 71 -108 274 -192 389 -77 105 -111 155 -191 285 -32 52 -77
120 -100 150 -67 89 -262 272 -354 333 -159 105 -198 159 -220 302 -13 84 -24
120 -65 211 -73 164 -101 197 -345 409 -95 83 -209 182 -253 220 -211 185
-445 351 -593 420 -132 62 -184 69 -264 34z m226 -315 c21 -15 62 -49 89 -76
44 -44 135 -116 345 -273 36 -26 85 -67 110 -90 25 -24 63 -54 85 -68 22 -13
53 -37 69 -52 l30 -28 -25 -19 c-30 -25 -167 -94 -290 -147 -115 -49 -252 -70
-328 -51 -25 7 -85 18 -133 25 -131 20 -242 80 -294 160 -14 22 -11 34 59 212
93 232 164 392 184 416 22 24 54 21 99 -9z m909 -831 c78 -185 87 -311 52
-683 -9 -91 -17 -212 -17 -270 0 -58 -5 -143 -10 -190 -19 -167 -63 -425 -76
-446 -22 -37 -99 -49 -307 -48 -127 0 -191 4 -199 12 -15 15 -28 188 -31 432
l-2 205 54 3 c30 2 102 -2 160 -8 220 -24 240 -24 301 7 47 24 56 33 64 65 9
37 9 39 -55 100 -64 62 -67 63 -145 76 -43 7 -148 16 -232 19 -87 3 -158 11
-166 17 -29 23 -50 462 -23 484 6 5 49 19 95 30 82 21 379 154 457 205 53 35
62 33 80 -10z m-1365 -150 c127 -62 264 -93 407 -93 46 0 55 -3 62 -22 5 -13
10 -115 12 -228 l4 -205 -265 -6 c-146 -4 -302 -10 -347 -14 l-82 -8 -12 29
c-9 22 -9 61 0 157 10 118 15 138 62 255 52 131 75 176 87 170 4 -2 36 -17 72
-35z m1993 -643 c84 -81 138 -144 183 -212 35 -53 64 -101 64 -107 0 -16 -26
-14 -102 8 -37 11 -133 29 -215 42 -81 12 -152 26 -157 30 -8 7 9 355 20 387
8 25 86 -30 207 -148z m-2451 9 c5 -19 23 -80 40 -135 18 -61 28 -111 25 -125
-4 -13 -36 -58 -72 -99 -36 -41 -88 -114 -116 -162 -28 -48 -54 -90 -59 -93
-28 -18 -23 157 10 305 10 47 29 115 42 151 32 85 97 201 111 196 6 -2 15 -19
19 -38z m950 -198 c24 -9 24 -10 41 -325 10 -174 15 -321 12 -326 -4 -6 -65
-10 -138 -10 -73 0 -150 -5 -172 -10 -49 -11 -53 -8 -95 90 -18 41 -82 176
-141 298 -60 123 -109 228 -109 233 0 19 51 27 236 38 104 6 207 13 229 15 86
6 115 6 137 -3z m781 -940 c9 -9 12 -86 13 -269 0 -191 5 -286 17 -372 31
-199 31 -210 16 -210 -22 0 -218 150 -289 221 -66 66 -135 178 -166 269 -10
29 -18 98 -21 192 l-6 146 41 12 c114 30 369 37 395 11z m-685 -78 c4 -10 7
-65 7 -123 0 -98 -2 -110 -31 -165 -16 -33 -63 -125 -103 -205 -125 -247 -255
-440 -412 -607 -22 -24 -44 -43 -49 -43 -14 0 100 297 194 505 19 44 38 100
41 125 4 25 20 104 37 175 23 97 32 158 33 240 2 61 3 111 4 113 0 1 62 2 136
2 120 0 136 -2 143 -17z"/>
</g>
</svg>
